<?xml version="1.0" encoding="UTF-8"?><svg id="Layer_2" xmlns="http://www.w3.org/2000/svg" viewBox="0 0 197.89999 75.10795"><defs><style>.cls-1{fill:#5b6670;}.cls-2{fill:#cf8a00;}</style></defs><g id="Layer_1-2"><g><path id="Path_42" class="cls-1" d="m15.2,33.5c-9.2,0-14.2-6.9-14.2-16.1C1,7.4,6.9,1.3,15.3,1.3c7.7,0,10.7,3.3,12.9,9.2l-7.9,3.1c-1.1-2.9-2.2-4.7-5-4.7-3.6,0-5.2,3.6-5.2,8.6,0,4.8,1.5,8.6,5.3,8.6,2.7,0,3.9-1.5,5.6-4.4l7.3,3.9c-2.2,4-5.6,7.9-13.1,7.9"/><path id="Path_43" class="cls-1" d="m49.9,33.1l-1.7-5.5h-9.4l-1.7,5.5h-9.3L39.1,1.8h8.8l11.3,31.3h-9.3Zm-4.4-14.4c-1.1-4-1.6-5.7-2-7.8-.4,2.1-.9,3.8-2,7.8l-.5,2h5.2l-.7-2Z"/><path id="Path_44" class="cls-1" d="m84.7,33.1v-7.5c0-3.1.1-5.9.2-8.3-.9,2.3-2.5,5.9-3.6,8.2l-4.1,8.7-4.1-8.7c-1.1-2.2-2.7-5.9-3.6-8.2.1,2.4.2,5.2.2,8.3v7.5h-8.1V1.8h7.9l3.8,8.3c1.48716,3.05237,2.78951,6.19136,3.9,9.4,1.09257-3.21543,2.39538-6.35553,3.9-9.4l3.8-8.4h7.9v31.3h-8.10001v.1Z"/><path id="Path_45" class="cls-1" d="m112,33.1h-15V1.8h15.1c7.7,0,10.9,2.9,10.9,8.1,0,3.4-1.7,4.9-3.8,6.1,2.83037,1.08974,4.64392,3.87052,4.5,6.9,0,6.4-3.9,10.2-11.7,10.2m-.2-24.4h-6.5v4.9h6.5c2,0,2.7-1,2.7-2.5,0-1.4-.7-2.4-2.7-2.4m.3,11.5h-6.9v6.1h6.8c1.54517.16668,2.93289-.95081,3.09956-2.49597l.00043-.00403v-.6c.12202-1.51374-.98907-2.84706-2.5-3h-.5"/><path id="Path_46" class="cls-1" d="m143.8,33.1l-5.10001-10.6h-3.5v10.5h-8.5V1.8h14c7.3,0,12.2,2.8,12.2,10.2,0,4.7-2.2,7.6-5.60001,9.1l6.3,11.9-9.79999.1Zm-3.3-24.2h-5.2v6.8h5.10001c2.8,0,3.89999-1.3,3.89999-3.5,0-2-1.10001-3.4-3.8-3.3"/><rect id="Rectangle_284" class="cls-1" x="156.59961" y="10.99995" width="8" height="22.1"/><path id="Path_47" class="cls-1" d="m188.5,33.1l-1.7-5.5h-9.39999l-1.7,5.5h-9.3l11.29999-31.3h8.8l11.3,31.3h-9.3Zm-4.39999-14.4c-1.10001-4-1.60001-5.7-2-7.8-.39999,2.1-.89999,3.8-2,7.8l-.60001,2h5.2l-.59999-2Z"/><path id="Path_48" class="cls-2" d="m160.7,7.9c-2.60001,0-4.60001-1.5-4.60001-4,0-2.3,2-3.9,4.60001-3.9s4.7,1.6,4.7,3.9c-.10001,2.5-2,4-4.7,4"/><rect id="Rectangle_285" class="cls-2" y="38.60005" width="197.89999" height="2.8"/><path id="Path_74" class="cls-1" d="m192.60001,4.5c-.08008-1.24283.86252-2.31525,2.10535-2.39532,1.23891-.07982,2.30931.85678,2.39465,2.09532v.3c.08562,1.24246-.85219,2.31907-2.09465,2.40468-1.24245.08561-2.31906-.85219-2.40468-2.09465-.00023-.00334-.00046-.00669-.00067-.01003v-.3m2.3,2.8c1.47948.01665,2.69232-1.16921,2.70897-2.64869.00095-.08386-.00204-.16773-.00897-.25131-.01599-1.50986-1.25293-2.72089-2.76279-2.7049-.04578.00048-.09152.00212-.13721.0049-1.51299.04084-2.71419,1.28653-2.7,2.8.00986,1.55686,1.27992,2.81096,2.83678,2.80111.02107-.00013.04214-.0005.06322-.00111h0m-.60001-2.6h.60001l.89999,1.4h.60001l-.90001-1.4c.45116-.00705.81119-.3785.80414-.82966-.00037-.02349-.00174-.04696-.00414-.07034h0c0-.6-.39999-.9-1.10001-.9h-1.2v3.2h.5l-.2-1.4Zm0-.4v-1h.7c.3,0,.7.1.7.5s-.39999.5-.8.5h-.59999Z"/><path id="Path_75" class="cls-1" d="m20.43242,55.10395h-2.432c-.02657.63055.10547,1.25768.384,1.824.25593.50128.62583.93557,1.08,1.268.47237.338,1.00437.58365,1.568.724.59821.15545,1.21392.23342,1.832.232.69501.01142,1.38787-.08024,2.056-.272.54047-.15475,1.0458-.41285,1.488-.76.38683-.31072.69514-.70809.9-1.16.20338-.45817.30569-.95476.3-1.456.02309-.55415-.11891-1.10267-.408-1.576-.25217-.39059-.5816-.72546-.968-.984-.34759-.23317-.72768-.41378-1.128-.536-.37867-.112-.67467-.18933-.888-.232-.71467-.18133-1.29333-.33067-1.736-.448-.35606-.08751-.70399-.20527-1.04-.352-.19937-.0786-.37263-.21166-.5-.384-.09213-.16602-.13644-.35432-.128-.544-.00851-.21409.04722-.42583.16-.608.10683-.16015.24577-.29636.408-.4.16863-.10802.35577-.18396.55199-.224.1999-.04238.40366-.06382.608-.064.28729-.0021.57407.0247.856.08.24801.04708.48527.13927.7.272.20544.13101.37354.31289.488.528.13309.26349.20683.55295.216.848h2.432c.01678-.58388-.11246-1.16271-.376-1.684-.24368-.45614-.59184-.84815-1.016-1.144-.44302-.30595-.93966-.52578-1.464-.648-.56332-.13497-1.14075-.20211-1.72-.2-.51896.00094-1.03548.07089-1.536.208-.49307.12983-.95903.34656-1.376.64-.40224.28461-.73796.65308-.984,1.08-.25947.46664-.3893.99424-.376,1.528-.0124.46333.0907.92246.3,1.336.18961.35883.45428.67261.776.92.33161.25176.69813.45388,1.088.6.40781.15545.82455.28635,1.248.392.416.11733.82667.224,1.232.32.37042.08515.73407.19746,1.088.336.28757.10772.55121.2708.776.48.20154.19717.31049.47025.3.752.0106.25619-.06863.50803-.224.712-.15052.1876-.34211.33814-.56.44-.22777.1078-.4705.18062-.72.216-.23833.036-.47897.05471-.72.056-.32379.00086-.64638-.03946-.96-.12-.28996-.07112-.56401-.19594-.808-.368-.23269-.16927-.42188-.39136-.552-.648-.15015-.30441-.22427-.64068-.21601-.98Zm8.336-1.936c.01254-.47041.15065-.92891.4-1.328.23103-.34792.53896-.63806.9-.848.37946-.21973.79327-.37389,1.224-.456.44895-.09145.90584-.13835,1.36401-.14.42284.00047.84517.02988,1.264.088.40506.05227.79927.16837,1.168.344.34225.16255.63904.40712.864.712.23924.35594.35709.77965.336,1.208v4.3c-.00124.36098.02013.72169.064,1.08.02044.26879.09673.53037.224.768h-2.3c-.04142-.12847-.07482-.25939-.1-.392-.02955-.13458-.05092-.27083-.064-.408-.35225.36694-.79308.63694-1.28.784-.48617.14846-.99167.22395-1.5.224-.37153.00252-.74164-.04593-1.1-.144-.32697-.08757-.63302-.23992-.9-.448-.25787-.20501-.46348-.4682-.6-.768-.15113-.3466-.22485-.72199-.216-1.1-.01518-.40128.07006-.80001.248-1.16.15283-.28981.37215-.53929.64-.728.27412-.18707.57865-.32512.9-.408.3345-.09035.67367-.16245,1.016-.216.34133-.05333.67733-.096,1.008-.128.29647-.02633.5906-.07446.88-.144.22081-.04744.42842-.14305.608-.28.15372-.13327.23159-.33393.208-.536.00951-.20164-.03175-.40244-.12-.584-.07477-.13855-.18526-.25457-.32-.336-.14267-.08326-.30033-.13762-.464-.16-.18806-.02752-.37793-.04089-.568-.04-.37394-.02126-.74463.07984-1.056.288-.28033.24077-.44353.5905-.448.96l-2.28001-.004Zm5.248,1.68c-.10514.09047-.22764.15853-.36.2-.15189.05005-.30688.09014-.464.12-.16533.032-.33867.05867-.52.08s-.36266.048-.544.08c-.16919.03212-.33619.07487-.5.128-.15479.04803-.3007.12098-.432.216-.12454.09071-.22707.20828-.3.344-.08032.16406-.1188.34545-.112.528-.00573.17732.03276.35327.112.512.06949.13376.17296.24688.3.328.13747.0836.28945.14059.448.168.17413.03232.35089.04839.528.048.3605.02019.71978-.05719,1.04-.224.22454-.12874.41195-.31339.544-.536.11275-.19446.18614-.40921.216-.632.02342-.16973.03678-.34069.04-.512l.00399-.848Zm8.608,4.048l2.8-8.272h-2.256l-1.744,5.648h-.032l-1.744-5.648h-2.384l2.832,8.272h2.528Zm3.648-5.728c.01255-.47041.15065-.92891.4-1.328.23103-.34792.53896-.63806.9-.848.37823-.21931.79065-.37346,1.22-.456.45026-.09172.9085-.13861,1.368-.14.42285.00047.84517.02988,1.264.088.40506.05227.79927.16837,1.168.344.34225.16255.63904.40712.864.712.23924.35594.35709.77965.336,1.208v4.3c-.00091.35831.02047.71634.064,1.072.01934.27153.09566.53594.224.776h-2.3c-.04141-.12847-.07481-.25939-.1-.392-.02955-.13458-.05092-.27083-.064-.408-.35225.36694-.79308.63694-1.28.784-.48617.14846-.99167.22395-1.5.224-.37286.00289-.74435-.04557-1.104-.144-.32697-.08757-.63302-.23992-.9-.448-.25786-.20501-.46348-.4682-.6-.768-.15113-.3466-.22484-.72199-.216-1.1-.01519-.40128.07006-.80001.248-1.16.15284-.28981.37216-.53929.64-.728.27412-.18707.57865-.32512.9-.408.3345-.09035.67367-.16246,1.016-.216.34134-.05333.67733-.096,1.008-.128.29647-.02633.5906-.07446.88-.144.22081-.04744.42842-.14305.608-.28.15372-.13327.23159-.33393.208-.536.00951-.20164-.03175-.40244-.12-.584-.07477-.13855-.18526-.25457-.32-.336-.14267-.08326-.30033-.13762-.464-.16-.18807-.02752-.37793-.04089-.568-.04-.37394-.02126-.74463.07984-1.056.288-.28033.24077-.44353.5905-.448.96l-2.276-.004Zm5.248,1.68c-.10514.09047-.22764.15853-.36.2-.15189.05005-.30689.09013-.464.12-.16533.032-.33867.05867-.52.08-.18133.02133-.36267.048-.544.08-.16919.03212-.33619.07487-.5.128-.15479.04803-.3007.12098-.432.216-.12454.09071-.22707.20828-.3.344-.08033.16406-.1188.34545-.112.528-.00573.17732.03276.35327.112.512.06949.13376.17295.24688.3.328.13748.0836.28946.14059.448.168.17413.03232.35089.04839.528.048.3605.02019.71978-.05719,1.04-.224.22454-.12874.41195-.31339.544-.536.11275-.19446.18614-.40921.216-.632.02342-.16973.03678-.34069.04-.512l.004-.848Zm4.032-4.224v8.272h2.272v-4.336c-.05286-.63382.09251-1.2684.416-1.816.33202-.39065.83349-.59512,1.344-.548.44087-.04869.87413.14201,1.136.5.24433.47051.35501.99899.32,1.528v4.672h2.272v-5.088c.00416-.47016-.04143-.93943-.136-1.4-.07582-.38794-.23706-.75413-.472-1.072-.24092-.30615-.55823-.54344-.92-.688-.47861-.18132-.9885-.26562-1.5-.248-.48805.00186-.96937.11398-1.408.328-.46998.22912-.8602.59426-1.12,1.048h-.048v-1.152h-2.156Zm9.488,0v8.272h2.272v-4.336c-.05165-.63424.09512-1.26885.42-1.816.33117-.38943.83084-.59378,1.34-.548.44087-.04868.87413.14201,1.136.5.24433.47051.35501.99899.32,1.528v4.672h2.272v-5.088c.00416-.47016-.04143-.93943-.136-1.4-.07582-.38794-.23706-.75413-.472-1.072-.24092-.30615-.55823-.54344-.92-.688-.47861-.18132-.9885-.26562-1.5-.248-.48805.00186-.96937.11398-1.408.328-.46998.22912-.86021.59426-1.12,1.048h-.048v-1.152h-2.156Zm9.392,2.544c.01254-.47041.15065-.92891.4-1.328.23103-.34792.53896-.63806.9-.848.37823-.21931.79065-.37346,1.22-.456.45026-.09172.9085-.13861,1.368-.14.42285.00047.84517.02988,1.264.088.40506.05227.79927.16837,1.168.344.34225.16255.63904.40712.864.712.23924.35594.3571.77965.336,1.208v4.3c-.00091.35831.02047.71634.064,1.072.01934.27153.09566.53594.224.776h-2.3c-.04141-.12847-.07481-.25939-.1-.392-.02955-.13458-.05092-.27083-.064-.408-.35225.36694-.79308.63694-1.28.784-.48617.14846-.99167.22395-1.5.224-.37153.00252-.74164-.04593-1.1-.144-.32697-.08757-.63302-.23992-.9-.448-.25786-.20501-.46348-.4682-.6-.768-.15113-.3466-.22484-.72199-.216-1.1-.01519-.40128.07006-.80001.248-1.16.15284-.28981.37216-.53929.64-.728.27412-.18706.57865-.32511.9-.408.33451-.09035.67367-.16246,1.016-.216.34133-.05333.67733-.096,1.008-.128.29647-.02633.5906-.07446.88-.144.22081-.04744.42842-.14305.608-.28.15372-.13327.23159-.33393.208-.536.00951-.20164-.03176-.40244-.12-.584-.07477-.13855-.18526-.25457-.32-.336-.14267-.08326-.30033-.13762-.464-.16-.18807-.02752-.37793-.04089-.568-.04-.37394-.02126-.74463.07984-1.056.288-.28032.24077-.44353.5905-.448.96l-2.27999-.004Zm5.248,1.68c-.10514.09047-.22764.15853-.36.2-.15189.05005-.30689.09013-.464.12-.16533.032-.33867.05867-.52.08s-.36267.048-.544.08c-.16919.03212-.33619.07487-.5.128-.15479.04803-.3007.12098-.432.216-.12454.09071-.22707.20828-.3.344-.08033.16406-.1188.34545-.112.528-.00573.17732.03276.35327.112.512.06949.13376.17295.24688.3.328.13748.0836.28945.14059.448.168.17413.03232.35089.04839.528.048.3605.02019.71978-.05719,1.04-.224.22454-.12874.41195-.31339.544-.536.11275-.19446.18614-.40921.216-.632.02342-.16973.03678-.34069.04-.512l.004-.848Zm4.032-7.376v11.424h2.272v-4.336c-.05286-.63382.09251-1.2684.416-1.816.33202-.39065.83349-.59512,1.344-.548.44087-.04868.87413.14201,1.136.5.24433.47051.35501.99899.32,1.528v4.672h2.272v-5.088c.00416-.47016-.04143-.93943-.136-1.4-.07582-.38793-.23706-.75413-.472-1.072-.24092-.30615-.55823-.54344-.92-.688-.47861-.18132-.9885-.26562-1.5-.248-.45669.00734-.90558.11957-1.312.328-.46175.23356-.84437.5981-1.1,1.048h-.048v-4.3l-2.272-.004Zm16.688,9.312v-7.2h1.792c.53229-.01526,1.06237.07445,1.56.264.39957.15964.75001.42178,1.016.76.26621.35235.45438.75732.552,1.188.11726.51157.17365,1.0352.168,1.56.01347.54322-.06774,1.08464-.24,1.6-.13501.39625-.35323.75903-.64,1.064-.25377.26377-.56625.46387-.912.584-.33974.11707-.69665.17656-1.056.176l-2.24.004Zm-2.512-9.312v11.424h4.928c.78274.01826,1.56027-.13179,2.28-.44.62252-.27624,1.17485-.68912,1.616-1.208.44438-.53516.77388-1.15603.968-1.824.21918-.74676.327-1.52177.32-2.3.01729-.84336-.11544-1.68309-.392-2.48-.23255-.65776-.60357-1.25794-1.088-1.76-.46403-.47105-1.02693-.83311-1.648-1.06-.6589-.23886-1.35517-.35807-2.056-.352h-4.928Zm13.632,7.3c.00102-.32784.03452-.65477.1-.976.05636-.3004.16755-.58786.328-.848.15512-.2458.36621-.4514.616-.6.29265-.16395.62477-.24421.96-.232.33769-.01144.67218.06872.968.232.25325.14687.46731.3527.624.6.16045.26014.27164.5476.328.848.06548.32123.09898.64816.1.976-.00076.32521-.03426.64951-.1.968-.05825.29986-.16931.58699-.328.848-.15369.24973-.36843.45622-.624.6-.29751.15809-.63129.23533-.968.224-.33423.01205-.66562-.06527-.96-.224-.25212-.14555-.46387-.3518-.616-.6-.15869-.26101-.26975-.54814-.328-.848-.066-.3198-.09951-.64546-.1-.972v.004Zm-2.272,0c-.01001.61062.09166,1.21793.3,1.792.18885.51156.48323.97765.864,1.368.38248.38095.84213.67556,1.348.864.56296.20839,1.1598.31012,1.76.3.60277.00961,1.20214-.09209,1.768-.3.50821-.18989.9694-.48734,1.352-.872.38077-.39035.67515-.85644.864-1.368.20834-.57407.31001-1.18138.3-1.792.00951-.61319-.09213-1.22304-.3-1.8-.1885-.51173-.48292-.9779-.864-1.368-.38358-.38538-.84433-.68527-1.352-.88-.56385-.2173-1.16375-.32588-1.768-.32-.60117-.00892-1.19853.09697-1.76.312-.50459.19615-.96245.49593-1.344.88-.38203.39244-.6765.86142-.864,1.376-.20971.57797-.31272,1.18922-.304,1.804v.004Zm19.484,4.124l2.608-8.272h-2.332l-1.52,5.6h-.032l-1.408-5.6h-2.208l-1.376,5.616h-.032l-1.52-5.616h-2.4l2.62,8.272h2.352l1.408-5.552h.04l1.468,5.552h2.332Zm3.568-8.272v8.272h2.272v-4.336c-.05286-.63382.09251-1.2684.416-1.816.33202-.39065.83349-.59512,1.344-.548.44087-.04869.87413.14201,1.136.5.24433.47051.35501.99899.32,1.528v4.672h2.272v-5.088c.00416-.47016-.04143-.93943-.136-1.4-.07582-.38794-.23706-.75413-.472-1.072-.24092-.30615-.55823-.54344-.92-.688-.47861-.18132-.9885-.26562-1.5-.248-.48805.00186-.96937.11398-1.408.328-.46702.23043-.85433.59544-1.112,1.048h-.048v-1.152h-2.164Zm12.368,0v-2.48h-2.268v2.48h-1.376v1.52h1.376v4.88c-.01477.348.05668.69427.208,1.008.12985.24685.32673.45205.568.592.25736.14459.53959.23957.832.28.33104.04919.66533.07326,1,.072.224,0,.45333-.00533.688-.016.21308-.00877.42545-.03014.636-.064v-1.76c-.11106.02196-.22322.03799-.336.048-.11733.01067-.24.016-.368.016-.27089.03238-.54422-.03596-.768-.192-.15604-.22378-.22438-.49711-.192-.768v-4.1h1.664v-1.52l-1.664.004Zm4.768,4.144c.00102-.32784.03452-.65477.1-.976.05636-.3004.16755-.58786.328-.848.15512-.2458.36621-.4514.616-.6.29265-.16395.62477-.24421.96-.232.33769-.01144.67218.06872.968.232.25325.14687.46732.3527.624.6.16045.26014.27164.5476.328.848.06548.32123.09898.64816.1.976-.00076.3252-.03426.64951-.1.968-.05825.29986-.16931.58699-.328.848-.15369.24973-.36843.45622-.624.6-.2975.15809-.63129.23533-.968.224-.33423.01205-.66562-.06527-.96-.224-.25212-.14555-.46387-.3518-.616-.6-.16009-.26074-.27251-.54788-.332-.848-.06305-.31877-.09387-.64306-.092-.968h-.004Zm-2.272,0c-.01001.61062.09166,1.21793.3,1.792.19003.51191.48579.97803.868,1.368.3821.38239.84177.67838,1.348.868.56296.20839,1.1598.31012,1.76.3.60277.00961,1.20214-.09209,1.768-.3.50822-.18989.96941-.48734,1.352-.872.38077-.39035.67514-.85644.864-1.368.20834-.57407.31001-1.18138.3-1.792.00951-.61319-.09213-1.22304-.3-1.8-.1885-.51173-.48293-.9779-.864-1.368-.38358-.38538-.84433-.68527-1.352-.88-.56385-.2173-1.16375-.32588-1.768-.32-.60117-.00892-1.19852.09697-1.76.312-.50673.19801-.96605.50058-1.348.888-.38203.39244-.6765.86142-.864,1.376-.20739.5757-.30903,1.18415-.3,1.796h-.004Zm19.492,4.128l2.608-8.272h-2.33201l-1.52,5.6h-.032l-1.408-5.6h-2.21201l-1.376,5.616h-.032l-1.52-5.616h-2.4l2.624,8.272h2.352l1.408-5.552h.032l1.472,5.552h2.33601Zm3.568-8.272v8.272h2.272v-4.336c-.05286-.63382.09251-1.2684.416-1.816.33202-.39065.83348-.59512,1.34399-.548.44086-.04869.87413.14201,1.136.5.24433.47051.35501.99899.32,1.528v4.672h2.272v-5.088c.00416-.47016-.04143-.93943-.136-1.4-.07582-.38794-.23706-.75413-.472-1.072-.24092-.30615-.55824-.54344-.92-.688-.47861-.18132-.9885-.26562-1.5-.248-.48805.00186-.96937.11398-1.408.328-.46851.22977-.85728.59485-1.11601,1.048h-.048v-1.152h-2.16Zm-130.56001,12.848v11.424h2.512v-4.928h4.624v4.928h2.512v-11.424h-2.512v4.384h-4.624v-4.384h-2.512Zm13.952,1.872v-1.872h-2.272v1.872h2.272Zm-2.272,1.28v8.272h2.272v-8.272h-2.272Zm5.824,5.584h-2.16c.00218.48627.13182.96347.376,1.384.22113.35975.52227.66363.88.888.37623.23148.79071.39402,1.224.48.46311.09645.93496.14471,1.408.144.46469.00045.92828-.0451,1.384-.136.4285-.08091.83816-.24097,1.208-.472.35181-.22381.64524-.52822.856-.888.23114-.4179.34451-.89072.328-1.368.01133-.33671-.06591-.67049-.224-.968-.1473-.2591-.34932-.48297-.592-.656-.25746-.18215-.54055-.32505-.84-.424-.31769-.10751-.6408-.19831-.968-.272-.32-.07467-.63467-.144-.944-.208-.27864-.0559-.55377-.12802-.824-.216-.21297-.06536-.41128-.17131-.584-.312-.14788-.12313-.23056-.30768-.224-.5-.00769-.14695.03774-.29177.128-.408.08443-.10067.19129-.18013.312-.232.13015-.05383.26772-.08754.408-.1.13814-.01537.27701-.02338.416-.024.36556-.00897.72786.07063,1.056.232.31727.18155.50929.52258.5.888h2.16c-.02306-.44997-.15778-.88711-.392-1.272-.21152-.32834-.49459-.60457-.828-.808-.34766-.20923-.72952-.35547-1.128-.432-.42799-.08585-.86348-.12873-1.3-.128-.44011-.00075-.87933.03942-1.312.12-.40764.07121-.80001.21193-1.16.416-.33887.19493-.62247.47301-.824.808-.22276.40029-.33072.85429-.312,1.312-.01037.32133.06707.6394.224.92.14829.24957.35057.46279.592.624.25976.17224.54255.3069.84.4.31467.10133.63733.18933.968.264.64488.12449,1.27988.29561,1.9.512.45333.17067.68.42667.68.768.00606.1777-.04435.35275-.144.5-.09466.13215-.21766.24149-.36.32-.15031.08232-.3121.14164-.48.176-.16428.03592-.33184.05468-.5.056-.2185.00067-.43622-.02621-.648-.08-.19749-.04859-.38452-.13262-.552-.248-.16107-.11317-.29496-.26073-.392-.432-.1064-.19194-.16021-.40858-.156-.628Zm9.712-5.584v-2.48h-2.272v2.48h-1.376v1.52h1.376v4.88c-.01477.34801.05668.69427.208,1.008.12985.24685.32673.45205.568.592.25736.14459.53959.23957.832.28.33104.04919.66533.07326,1,.072.224,0,.45333-.00533.688-.016.21441-.00861.42813-.02998.64-.064v-1.76c-.11107.02196-.22323.03799-.336.048-.11733.01067-.24.016-.368.016-.27089.03238-.54422-.03596-.768-.192-.15604-.22378-.22437-.49712-.192-.768v-4.1h1.664v-1.516h-1.664Zm4.768,4.144c.00102-.32784.03452-.65477.1-.976.05636-.3004.16755-.58786.328-.848.15512-.2458.3662-.4514.616-.6.29265-.16395.62477-.24421.96-.232.33769-.01144.67218.06872.968.232.25325.14687.46731.3527.624.6.16045.26014.27164.5476.328.848.06548.32123.09898.64816.1.976-.00076.3252-.03426.64951-.1.968-.05825.29986-.16931.58699-.328.848-.15369.24973-.36843.45622-.624.6-.29751.15809-.63129.23533-.968.224-.33423.01205-.66562-.06527-.96-.224-.25212-.14555-.46387-.3518-.616-.6-.15869-.26101-.26975-.54814-.328-.848-.06574-.31849-.09925-.64279-.1-.968Zm-2.272,0c-.01001.61062.09166,1.21793.3,1.792.18885.51156.48323.97765.864,1.368.38055.38336.83884.6807,1.344.872.56296.20839,1.1598.31012,1.76.3.60277.00961,1.20214-.09209,1.768-.3.50821-.18989.9694-.48734,1.352-.872.38077-.39035.67515-.85644.864-1.368.20834-.57407.31001-1.18138.3-1.792.00951-.61319-.09213-1.22304-.3-1.8-.18682-.51281-.47989-.98035-.86-1.372-.38358-.38538-.84433-.68527-1.352-.88-.56385-.2173-1.16375-.32588-1.768-.32-.60117-.00892-1.19853.09697-1.76.312-.50459.19615-.96245.49593-1.344.88-.38203.39244-.6765.86142-.864,1.376-.20971.57797-.31272,1.18922-.304,1.804Zm10.032-4.144v8.272h2.272v-3.728c-.00258-.34981.035-.69876.112-1.04.06685-.30267.1948-.58851.376-.84.18229-.24477.42293-.44003.7-.568.33193-.14769.69285-.21878,1.056-.208.14432.00031.28853.00832.432.024.14933.016.27733.03467.384.056v-2.112c-.16198-.05047-.33036-.07741-.5-.08-.2823-.00088-.56301.04231-.832.128-.26597.085-.519.20613-.752.36-.23465.15465-.44496.34339-.624.56-.17876.21442-.32438.45442-.432.712h-.032v-1.536h-2.16Zm8.56-1.28v-1.872h-2.272v1.872h2.272Zm-2.272,1.28v8.272h2.272v-8.272h-2.272Zm9.7,2.912h2.22c-.01833-.48496-.14983-.95892-.384-1.384-.21854-.38322-.51572-.71584-.872-.976-.36732-.26461-.7792-.46106-1.216-.58-.45921-.13137-.93437-.19867-1.412-.2-.61694-.01094-1.22956.10478-1.8.34-.50542.2118-.9586.53121-1.328.936-.36861.41304-.64779.89787-.82,1.424-.19079.57523-.28539,1.17798-.28,1.784-.00739.58046.09438,1.15713.3,1.7.19018.49771.47857.95207.848,1.336.37353.38057.82339.67775,1.32.872.54137.21222,1.11855.31815,1.7.312.97374.03949,1.93009-.26654,2.7-.864.73734-.63883,1.19653-1.53999,1.28-2.512h-2.18c-.04909.45634-.24246.88512-.552,1.224-.33664.3207-.79203.48603-1.256.456-.31716.01103-.63044-.07251-.9-.24-.24117-.15563-.44144-.36688-.584-.616-.14809-.26159-.25342-.54517-.312-.84-.06436-.29979-.09787-.60538-.1-.912.00184-.31456.03534-.62815.1-.936.06007-.30437.17095-.59645.328-.864.14938-.2557.35446-.47445.6-.64.27209-.17262.58996-.25905.912-.248.83627-.09027,1.58738.51449,1.67765,1.35076.00277.02569.00489.05144.00635.07724h.004Zm10.748,3.248v-7.2h1.788c.53229-.01526,1.06237.07445,1.56.264.39957.15964.75001.42178,1.016.76.26763.352.45717.757.556,1.188.11758.51287.17397,1.03786.168,1.564.01347.54322-.06774,1.08464-.24,1.6-.13501.39625-.35323.75903-.64,1.064-.25377.26377-.56625.46387-.912.584-.33974.11707-.69665.17656-1.056.176h-2.24Zm-2.512-9.312v11.424h4.928c.78274.01826,1.56027-.13179,2.28-.44.62252-.27624,1.17485-.68912,1.616-1.208.44438-.53516.77388-1.15603.968-1.824.21918-.74676.327-1.52177.32-2.3.01729-.84336-.11544-1.68309-.392-2.48-.23255-.65776-.60357-1.25794-1.088-1.76-.46443-.46961-1.0273-.83028-1.648-1.056-.65889-.23886-1.35517-.35807-2.056-.352l-4.928-.004Zm13.952,1.872v-1.872h-2.272v1.872h2.272Zm-2.272,1.28v8.272h2.272v-8.272h-2.272Zm5.82,5.584h-2.16c.00274.48799.13379.96667.38,1.388.22113.35975.52227.66363.88.888.37623.23148.79071.39402,1.224.48.46311.09646.93496.14472,1.408.144.46469.00046.92829-.0451,1.384-.136.4285-.08091.83816-.24097,1.208-.472.77488-.48136,1.22805-1.34484,1.184-2.256.01133-.33671-.06591-.67049-.224-.968-.1473-.2591-.34933-.48297-.592-.656-.25746-.18215-.54055-.32505-.84-.424-.31769-.10751-.6408-.19831-.968-.272-.32-.07467-.63467-.144-.944-.208-.27864-.0559-.55377-.12802-.824-.216-.21297-.06536-.41128-.17131-.584-.312-.14788-.12313-.23056-.30768-.224-.5-.00769-.14696.03774-.29177.128-.408.08442-.10067.19129-.18013.312-.232.13014-.05383.26772-.08754.408-.1.13814-.01537.27701-.02338.416-.024.36556-.00897.72786.07063,1.056.232.31727.18155.50929.52258.5.888h2.16c-.02306-.44997-.15778-.88711-.392-1.272-.21037-.3279-.49204-.60409-.824-.808-.34766-.20923-.72952-.35547-1.128-.432-.42799-.08585-.86349-.12873-1.3-.128-.44011-.00075-.87933.03942-1.312.12-.40488.07209-.79447.21278-1.152.416-.33887.19493-.62247.47301-.824.808-.22275.40029-.33072.85429-.312,1.312-.01037.32133.06708.6394.224.92.14829.24957.35057.46279.592.624.25976.17224.54255.3069.84.4.31466.10133.63733.18933.968.264.64488.12449,1.27988.29561,1.9.512.45333.17067.68.42667.68.768.00606.1777-.04435.35275-.144.5-.09466.13215-.21766.24149-.36.32-.15031.08232-.31211.14164-.48.176-.16428.03592-.33184.05468-.5.056-.2185.00067-.43622-.02621-.648-.08-.19749-.04859-.38452-.13262-.552-.248-.16107-.11317-.29497-.26073-.392-.432-.11267-.19156-.17205-.40976-.172-.63199Zm9.712-5.584v-2.48h-2.268v2.48h-1.376v1.52h1.376v4.88c-.01477.34801.05668.69427.208,1.008.12985.24685.32673.45205.568.592.25736.14459.53959.23957.832.28.33104.04919.66533.07326,1,.072.224,0,.45333-.00533.688-.016.21441-.00861.42812-.02998.64-.064v-1.76c-.11106.02196-.22322.03799-.336.048-.11733.01067-.24.016-.368.016-.27089.03238-.54422-.03596-.768-.192-.15604-.22378-.22438-.49712-.192-.768v-4.1h1.664v-1.516h-1.668Zm2.752,0v8.272h2.276v-3.728c-.00257-.34981.035-.69876.112-1.04.06685-.30267.1948-.58851.376-.84.18229-.24477.42293-.44003.7-.568.33194-.14769.69285-.21878,1.056-.208.14433.00031.28853.00832.432.024.14933.016.27733.03467.384.056v-2.112c-.16198-.05047-.33036-.07741-.5-.08-.2823-.00088-.56301.04231-.832.128-.26597.085-.519.20613-.752.36-.23465.15465-.44496.34339-.624.56-.17876.21442-.32438.45442-.432.712h-.032v-1.536h-2.164Zm8.56-1.28v-1.872h-2.268v1.872h2.268Zm-2.272,1.28v8.272h2.272v-8.272h-2.272Zm9.7,2.912h2.224c-.02871-.93923-.49298-1.81157-1.256-2.36-.36853-.26504-.7818-.46151-1.22-.58-.45921-.13137-.93437-.19867-1.412-.2-.61291-.0093-1.22128.10639-1.788.34-.50542.2118-.9586.53121-1.328.936-.37004.41268-.6506.89753-.824,1.424-.19079.57523-.28539,1.17798-.28,1.784-.00739.58046.09438,1.15713.3,1.7.19017.49771.47857.95207.848,1.336.37353.38057.82339.67775,1.32.872.54137.21222,1.11855.31815,1.7.312.97374.03949,1.93009-.26654,2.7-.864.73734-.63883,1.19653-1.53999,1.28-2.512h-2.184c-.04909.45634-.24246.88512-.552,1.224-.33657.3208-.79201.48616-1.256.456-.31716.01103-.63044-.07251-.9-.24-.24117-.15563-.44144-.36688-.584-.616-.14809-.26159-.25342-.54517-.312-.84-.06436-.29979-.09787-.60538-.1-.912.00184-.31456.03534-.62815.1-.936.06007-.30437.17095-.59645.328-.864.14938-.2557.35446-.47445.6-.64.27209-.17262.58996-.25905.912-.248.83627-.09027,1.58738.51449,1.67765,1.35076.00277.02569.00489.05145.00636.07724Zm6.432-2.912v-2.48h-2.272v2.48h-1.376v1.52h1.376v4.88c-.01477.34801.05668.69427.208,1.008.12985.24685.32673.45205.568.592.25736.14459.53959.23957.832.28.33104.04919.66533.07326,1,.072.224,0,.45333-.00533.688-.016.21441-.00861.42813-.02998.64-.064v-1.76c-.11106.02196-.22322.03799-.336.048-.11733.01067-.24.016-.368.016-.27089.03238-.54422-.03596-.768-.192-.15604-.22378-.22438-.49712-.192-.768v-4.1h1.664v-1.516h-1.664Z"/></g></g></svg>